{
	"accessors": [
		{
			"bufferView": 0,
			"byteOffset": 0,
			"componentType": 5126,
			"count": 117,
			"max": [
				4.83333349227905
			],
			"min": [
				0.0
			],
			"type": "SCALAR"
		},
		{
			"bufferView": 1,
			"byteOffset": 0,
			"componentType": 5126,
			"count": 117,
			"type": "VEC3"
		},
		{
			"bufferView": 2,
			"byteOffset": 0,
			"componentType": 5126,
			"count": 117,
			"type": "VEC4"
		},
		{
			"bufferView": 3,
			"byteOffset": 0,
			"componentType": 5126,
			"count": 117,
			"type": "VEC4"
		},
		{
			"bufferView": 4,
			"byteOffset": 0,
			"componentType": 5126,
			"count": 117,
			"type": "VEC4"
		},
		{
			"bufferView": 5,
			"byteOffset": 0,
			"componentType": 5126,
			"count": 117,
			"type": "VEC4"
		},
		{
			"bufferView": 6,
			"byteOffset": 0,
			"componentType": 5126,
			"count": 117,
			"type": "VEC4"
		},
		{
			"bufferView": 7,
			"byteOffset": 0,
			"componentType": 5126,
			"count": 117,
			"type": "VEC4"
		},
		{
			"bufferView": 8,
			"byteOffset": 0,
			"componentType": 5126,
			"count": 117,
			"type": "VEC4"
		},
		{
			"bufferView": 9,
			"byteOffset": 0,
			"componentType": 5126,
			"count": 117,
			"type": "VEC4"
		},
		{
			"bufferView": 10,
			"byteOffset": 0,
			"componentType": 5126,
			"count": 117,
			"type": "VEC4"
		},
		{
			"bufferView": 11,
			"byteOffset": 0,
			"componentType": 5126,
			"count": 117,
			"type": "VEC4"
		},
		{
			"bufferView": 12,
			"byteOffset": 0,
			"componentType": 5126,
			"count": 117,
			"type": "VEC4"
		},
		{
			"bufferView": 13,
			"byteOffset": 0,
			"componentType": 5126,
			"count": 117,
			"type": "VEC4"
		},
		{
			"bufferView": 14,
			"byteOffset": 0,
			"componentType": 5126,
			"count": 117,
			"type": "VEC4"
		},
		{
			"bufferView": 15,
			"byteOffset": 0,
			"componentType": 5126,
			"count": 117,
			"type": "VEC4"
		},
		{
			"bufferView": 16,
			"byteOffset": 0,
			"componentType": 5126,
			"count": 117,
			"type": "VEC4"
		},
		{
			"bufferView": 17,
			"byteOffset": 0,
			"componentType": 5126,
			"count": 117,
			"type": "VEC4"
		},
		{
			"bufferView": 18,
			"byteOffset": 0,
			"componentType": 5126,
			"count": 117,
			"type": "VEC3"
		},
		{
			"bufferView": 19,
			"byteOffset": 0,
			"componentType": 5126,
			"count": 117,
			"type": "VEC4"
		},
		{
			"bufferView": 20,
			"byteOffset": 0,
			"componentType": 5126,
			"count": 117,
			"type": "VEC4"
		},
		{
			"bufferView": 21,
			"byteOffset": 0,
			"componentType": 5126,
			"count": 117,
			"type": "VEC4"
		},
		{
			"bufferView": 22,
			"byteOffset": 0,
			"componentType": 5126,
			"count": 117,
			"type": "VEC3"
		},
		{
			"bufferView": 23,
			"byteOffset": 0,
			"componentType": 5126,
			"count": 117,
			"type": "VEC4"
		},
		{
			"bufferView": 24,
			"byteOffset": 0,
			"componentType": 5126,
			"count": 117,
			"type": "VEC3"
		},
		{
			"bufferView": 25,
			"byteOffset": 0,
			"componentType": 5126,
			"count": 117,
			"type": "VEC4"
		},
		{
			"bufferView": 26,
			"byteOffset": 0,
			"componentType": 5126,
			"count": 117,
			"type": "VEC4"
		},
		{
			"bufferView": 28,
			"byteOffset": 0,
			"componentType": 5125,
			"count": 476112,
			"type": "SCALAR"
		},
		{
			"bufferView": 29,
			"byteOffset": 0,
			"componentType": 5126,
			"count": 93338,
			"max": [
				0.901724815368652,
				1.00911867618561,
				0.257865488529205
			],
			"min": [
				-0.944264352321625,
				-0.976264119148254,
				-0.194986239075661
			],
			"type": "VEC3"
		},
		{
			"bufferView": 30,
			"byteOffset": 0,
			"componentType": 5126,
			"count": 93338,
			"type": "VEC2"
		},
		{
			"bufferView": 31,
			"byteOffset": 0,
			"componentType": 5123,
			"count": 93338,
			"type": "VEC4"
		},
		{
			"bufferView": 32,
			"byteOffset": 0,
			"componentType": 5126,
			"count": 93338,
			"type": "VEC4"
		},
		{
			"bufferView": 33,
			"byteOffset": 0,
			"componentType": 5126,
			"count": 22,
			"type": "MAT4"
		}
	],
	"animations": [
		{
			"channels": [
				{
					"sampler": 0,
					"target": {
						"node": 2,
						"path": "translation"
					}
				},
				{
					"sampler": 1,
					"target": {
						"node": 2,
						"path": "rotation"
					}
				},
				{
					"sampler": 2,
					"target": {
						"node": 3,
						"path": "rotation"
					}
				},
				{
					"sampler": 3,
					"target": {
						"node": 4,
						"path": "rotation"
					}
				},
				{
					"sampler": 4,
					"target": {
						"node": 5,
						"path": "rotation"
					}
				},
				{
					"sampler": 5,
					"target": {
						"node": 6,
						"path": "rotation"
					}
				},
				{
					"sampler": 6,
					"target": {
						"node": 7,
						"path": "rotation"
					}
				},
				{
					"sampler": 7,
					"target": {
						"node": 8,
						"path": "rotation"
					}
				},
				{
					"sampler": 8,
					"target": {
						"node": 9,
						"path": "rotation"
					}
				},
				{
					"sampler": 9,
					"target": {
						"node": 10,
						"path": "rotation"
					}
				},
				{
					"sampler": 10,
					"target": {
						"node": 11,
						"path": "rotation"
					}
				},
				{
					"sampler": 11,
					"target": {
						"node": 12,
						"path": "rotation"
					}
				},
				{
					"sampler": 12,
					"target": {
						"node": 13,
						"path": "rotation"
					}
				},
				{
					"sampler": 13,
					"target": {
						"node": 14,
						"path": "rotation"
					}
				},
				{
					"sampler": 14,
					"target": {
						"node": 15,
						"path": "rotation"
					}
				},
				{
					"sampler": 15,
					"target": {
						"node": 16,
						"path": "rotation"
					}
				},
				{
					"sampler": 16,
					"target": {
						"node": 17,
						"path": "rotation"
					}
				},
				{
					"sampler": 17,
					"target": {
						"node": 18,
						"path": "translation"
					}
				},
				{
					"sampler": 18,
					"target": {
						"node": 18,
						"path": "rotation"
					}
				},
				{
					"sampler": 19,
					"target": {
						"node": 19,
						"path": "rotation"
					}
				},
				{
					"sampler": 20,
					"target": {
						"node": 20,
						"path": "rotation"
					}
				},
				{
					"sampler": 21,
					"target": {
						"node": 21,
						"path": "translation"
					}
				},
				{
					"sampler": 22,
					"target": {
						"node": 21,
						"path": "rotation"
					}
				},
				{
					"sampler": 23,
					"target": {
						"node": 22,
						"path": "translation"
					}
				},
				{
					"sampler": 24,
					"target": {
						"node": 22,
						"path": "rotation"
					}
				},
				{
					"sampler": 25,
					"target": {
						"node": 23,
						"path": "rotation"
					}
				}
			],
			"name": "Armature|Armature.001|mixamo.com|Layer0_IN_PLACE_remap",
			"samplers": [
				{
					"input": 0,
					"interpolation": "LINEAR",
					"output": 1
				},
				{
					"input": 0,
					"interpolation": "LINEAR",
					"output": 2
				},
				{
					"input": 0,
					"interpolation": "LINEAR",
					"output": 3
				},
				{
					"input": 0,
					"interpolation": "LINEAR",
					"output": 4
				},
				{
					"input": 0,
					"interpolation": "LINEAR",
					"output": 5
				},
				{
					"input": 0,
					"interpolation": "LINEAR",
					"output": 6
				},
				{
					"input": 0,
					"interpolation": "LINEAR",
					"output": 7
				},
				{
					"input": 0,
					"interpolation": "LINEAR",
					"output": 8
				},
				{
					"input": 0,
					"interpolation": "LINEAR",
					"output": 9
				},
				{
					"input": 0,
					"interpolation": "LINEAR",
					"output": 10
				},
				{
					"input": 0,
					"interpolation": "LINEAR",
					"output": 11
				},
				{
					"input": 0,
					"interpolation": "LINEAR",
					"output": 12
				},
				{
					"input": 0,
					"interpolation": "LINEAR",
					"output": 13
				},
				{
					"input": 0,
					"interpolation": "LINEAR",
					"output": 14
				},
				{
					"input": 0,
					"interpolation": "LINEAR",
					"output": 15
				},
				{
					"input": 0,
					"interpolation": "LINEAR",
					"output": 16
				},
				{
					"input": 0,
					"interpolation": "LINEAR",
					"output": 17
				},
				{
					"input": 0,
					"interpolation": "LINEAR",
					"output": 18
				},
				{
					"input": 0,
					"interpolation": "LINEAR",
					"output": 19
				},
				{
					"input": 0,
					"interpolation": "LINEAR",
					"output": 20
				},
				{
					"input": 0,
					"interpolation": "LINEAR",
					"output": 21
				},
				{
					"input": 0,
					"interpolation": "LINEAR",
					"output": 22
				},
				{
					"input": 0,
					"interpolation": "LINEAR",
					"output": 23
				},
				{
					"input": 0,
					"interpolation": "LINEAR",
					"output": 24
				},
				{
					"input": 0,
					"interpolation": "LINEAR",
					"output": 25
				},
				{
					"input": 0,
					"interpolation": "LINEAR",
					"output": 26
				}
			]
		}
	],
	"asset": {
		"generator": "FBX2glTF v0.9.7",
		"version": "2.0"
	},
	"bufferViews": [
		{
			"buffer": 0,
			"byteLength": 468,
			"byteOffset": 0
		},
		{
			"buffer": 0,
			"byteLength": 1404,
			"byteOffset": 468
		},
		{
			"buffer": 0,
			"byteLength": 1872,
			"byteOffset": 1872
		},
		{
			"buffer": 0,
			"byteLength": 1872,
			"byteOffset": 3744
		},
		{
			"buffer": 0,
			"byteLength": 1872,
			"byteOffset": 5616
		},
		{
			"buffer": 0,
			"byteLength": 1872,
			"byteOffset": 7488
		},
		{
			"buffer": 0,
			"byteLength": 1872,
			"byteOffset": 9360
		},
		{
			"buffer": 0,
			"byteLength": 1872,
			"byteOffset": 11232
		},
		{
			"buffer": 0,
			"byteLength": 1872,
			"byteOffset": 13104
		},
		{
			"buffer": 0,
			"byteLength": 1872,
			"byteOffset": 14976
		},
		{
			"buffer": 0,
			"byteLength": 1872,
			"byteOffset": 16848
		},
		{
			"buffer": 0,
			"byteLength": 1872,
			"byteOffset": 18720
		},
		{
			"buffer": 0,
			"byteLength": 1872,
			"byteOffset": 20592
		},
		{
			"buffer": 0,
			"byteLength": 1872,
			"byteOffset": 22464
		},
		{
			"buffer": 0,
			"byteLength": 1872,
			"byteOffset": 24336
		},
		{
			"buffer": 0,
			"byteLength": 1872,
			"byteOffset": 26208
		},
		{
			"buffer": 0,
			"byteLength": 1872,
			"byteOffset": 28080
		},
		{
			"buffer": 0,
			"byteLength": 1872,
			"byteOffset": 29952
		},
		{
			"buffer": 0,
			"byteLength": 1404,
			"byteOffset": 31824
		},
		{
			"buffer": 0,
			"byteLength": 1872,
			"byteOffset": 33228
		},
		{
			"buffer": 0,
			"byteLength": 1872,
			"byteOffset": 35100
		},
		{
			"buffer": 0,
			"byteLength": 1872,
			"byteOffset": 36972
		},
		{
			"buffer": 0,
			"byteLength": 1404,
			"byteOffset": 38844
		},
		{
			"buffer": 0,
			"byteLength": 1872,
			"byteOffset": 40248
		},
		{
			"buffer": 0,
			"byteLength": 1404,
			"byteOffset": 42120
		},
		{
			"buffer": 0,
			"byteLength": 1872,
			"byteOffset": 43524
		},
		{
			"buffer": 0,
			"byteLength": 1872,
			"byteOffset": 45396
		},
		{
			"buffer": 0,
			"byteLength": 4217412,
			"byteOffset": 47268
		},
		{
			"buffer": 0,
			"byteLength": 1904448,
			"byteOffset": 4264680,
			"target": 34963
		},
		{
			"buffer": 0,
			"byteLength": 1120056,
			"byteOffset": 6169128,
			"target": 34962
		},
		{
			"buffer": 0,
			"byteLength": 746704,
			"byteOffset": 7289184,
			"target": 34962
		},
		{
			"buffer": 0,
			"byteLength": 746704,
			"byteOffset": 8035888,
			"target": 34962
		},
		{
			"buffer": 0,
			"byteLength": 1493408,
			"byteOffset": 8782592,
			"target": 34962
		},
		{
			"buffer": 0,
			"byteLength": 1408,
			"byteOffset": 10276000
		}
	],
	"buffers": [
		{
			"byteLength": 10277408,
			"uri": "file_0.bin"
		}
	],
	"extensionsUsed": [
		"KHR_texture_basisu",
		"EXT_texture_webp"
	],
	"images": [
		{
			"bufferView": 27,
			"mimeType": "image/unknown",
			"name": "Simulator_Figure_1213013522_texture.fbm"
		}
	],
	"materials": [
		{
			"alphaMode": "OPAQUE",
			"extras": {
				"fromFBX": {
					"isTruePBR": false,
					"shadingModel": "Phong"
				}
			},
			"name": "Material_0",
			"pbrMetallicRoughness": {
				"baseColorFactor": [
					1.0,
					1.0,
					1.0,
					1.0
				],
				"baseColorTexture": {
					"index": 0,
					"texCoord": 0
				},
				"metallicFactor": 0.400000005960464,
				"roughnessFactor": 0.577350318431854
			}
		},
		{}
	],
	"meshes": [
		{
			"name": "mesh",
			"primitives": [
				{
					"attributes": {
						"JOINTS_0": 30,
						"POSITION": 28,
						"TEXCOORD_0": 29,
						"WEIGHTS_0": 31
					},
					"indices": 27,
					"material": 0,
					"mode": 4
				}
			]
		}
	],
	"nodes": [
		{
			"children": [
				1,
				24
			],
			"name": "RootNode",
			"rotation": [
				0.0,
				0.0,
				0.0,
				1.0
			],
			"scale": [
				1.0,
				1.0,
				1.0
			],
			"translation": [
				0.0,
				0.0,
				0.0
			]
		},
		{
			"children": [
				2
			],
			"name": "Armature",
			"rotation": [
				-3.7748947079308e-08,
				-0.0,
				0.0,
				1.0
			],
			"scale": [
				1.0,
				1.0,
				1.0
			],
			"translation": [
				0.0,
				0.0,
				0.0
			]
		},
		{
			"children": [
				3,
				16,
				20
			],
			"name": "mixamorig:Hips",
			"rotation": [
				-0.278460413217545,
				-0.00367021677084267,
				0.0212901625782251,
				0.960204720497131
			],
			"scale": [
				0.999999940395355,
				1.0,
				1.0
			],
			"translation": [
				-0.00389104778878391,
				-0.217409089207649,
				0.00270942971110344
			]
		},
		{
			"children": [
				4
			],
			"name": "mixamorig:Spine",
			"rotation": [
				0.191009655594826,
				0.0838080570101738,
				0.00275989691726863,
				0.977999925613403
			],
			"scale": [
				1.00000023841858,
				1.00000023841858,
				1.0
			],
			"translation": [
				0.000832250108942389,
				0.126971989870071,
				0.000183164433110505
			]
		},
		{
			"children": [
				5
			],
			"name": "mixamorig:Spine1",
			"rotation": [
				0.0439267158508301,
				-0.0235270876437426,
				0.00211072992533445,
				0.99875545501709
			],
			"scale": [
				1.0,
				1.0,
				0.999999940395355
			],
			"translation": [
				0.00166439125314355,
				0.146779358386993,
				0.00149667100049555
			]
		},
		{
			"children": [
				6,
				8,
				12
			],
			"name": "mixamorig:Spine2",
			"rotation": [
				0.0564001388847828,
				-0.0210185386240482,
				0.0207741800695658,
				0.997970759868622
			],
			"scale": [
				0.999999821186066,
				0.99999988079071,
				0.99999988079071
			],
			"translation": [
				0.00185981474351138,
				0.166686818003654,
				-0.000691996945533901
			]
		},
		{
			"children": [
				7
			],
			"name": "mixamorig:Neck",
			"rotation": [
				0.106293343007565,
				-0.00929368287324905,
				0.0341810807585716,
				0.993703663349152
			],
			"scale": [
				0.999999821186066,
				0.99999988079071,
				0.99999988079071
			],
			"translation": [
				-6.54309988021851e-05,
				0.220507323741913,
				-0.00679944036528468
			]
		},
		{
			"name": "mixamorig:Head",
			"rotation": [
				-0.0497087650001049,
				-0.0295921824872494,
				-0.0844081789255142,
				0.994750499725342
			],
			"scale": [
				0.999999940395355,
				0.99999988079071,
				0.999999821186066
			],
			"translation": [
				-0.00137619429733604,
				0.114456079900265,
				0.00924720149487257
			]
		},
		{
			"children": [
				9
			],
			"name": "mixamorig:LeftShoulder",
			"rotation": [
				0.755523025989532,
				0.24640317261219,
				-0.524584591388702,
				0.305420100688934
			],
			"scale": [
				0.999999761581421,
				0.999999761581421,
				0.99999988079071
			],
			"translation": [
				0.0782378688454628,
				0.189766213297844,
				-0.00372366444207728
			]
		},
		{
			"children": [
				10
			],
			"name": "mixamorig:LeftArm",
			"rotation": [
				0.372253894805908,
				0.14650085568428,
				0.00840635597705841,
				0.916457235813141
			],
			"scale": [
				0.999999940395355,
				0.99999988079071,
				1.0
			],
			"translation": [
				-0.000576772668864578,
				0.142474979162216,
				-0.000154592984472401
			]
		},
		{
			"children": [
				11
			],
			"name": "mixamorig:LeftForeArm",
			"rotation": [
				-0.18412184715271,
				0.190904453396797,
				0.267976313829422,
				0.926198303699493
			],
			"scale": [
				0.999999642372131,
				0.999999761581421,
				1.0
			],
			"translation": [
				0.000809079385362566,
				0.247837990522385,
				-0.000768913596402854
			]
		},
		{
			"name": "mixamorig:LeftHand",
			"rotation": [
				0.0642991662025452,
				-0.384489744901657,
				-0.186562806367874,
				0.901791334152222
			],
			"scale": [
				0.99999988079071,
				1.00000011920929,
				1.00000011920929
			],
			"translation": [
				0.000746861391235143,
				0.275302350521088,
				0.00214562122710049
			]
		},
		{
			"children": [
				13
			],
			"name": "mixamorig:RightShoulder",
			"rotation": [
				0.668525815010071,
				-0.322013080120087,
				0.609565198421478,
				0.278946369886398
			],
			"scale": [
				1.00000023841858,
				1.0,
				0.999999940395355
			],
			"translation": [
				-0.0992805957794189,
				0.19119967520237,
				-0.000143705008667894
			]
		},
		{
			"children": [
				14
			],
			"name": "mixamorig:RightArm",
			"rotation": [
				0.269675642251968,
				-0.630652248859406,
				-0.314119637012482,
				0.65641576051712
			],
			"scale": [
				0.999999642372131,
				1.0,
				0.999999940395355
			],
			"translation": [
				-0.00318275205790997,
				0.136786967515945,
				-0.00435756426304579
			]
		},
		{
			"children": [
				15
			],
			"name": "mixamorig:RightForeArm",
			"rotation": [
				-0.262259304523468,
				0.313624411821365,
				0.0349760912358761,
				0.911941051483154
			],
			"scale": [
				0.99999988079071,
				1.0,
				0.99999988079071
			],
			"translation": [
				-0.00130759505555034,
				0.25725519657135,
				-0.0017550588818267
			]
		},
		{
			"name": "mixamorig:RightHand",
			"rotation": [
				0.217970654368401,
				0.0780984088778496,
				0.0670339241623878,
				0.970513224601746
			],
			"scale": [
				0.999999940395355,
				1.00000011920929,
				1.0
			],
			"translation": [
				-0.00226326868869364,
				0.266787379980087,
				0.00124829891137779
			]
		},
		{
			"children": [
				17
			],
			"name": "mixamorig:LeftUpLeg",
			"rotation": [
				0.0277770031243563,
				0.245978474617004,
				0.966189801692963,
				-0.072113111615181
			],
			"scale": [
				0.999999642372131,
				0.999999821186066,
				0.999997973442078
			],
			"translation": [
				0.088870607316494,
				-0.0897792801260948,
				0.00238875998184085
			]
		},
		{
			"children": [
				18
			],
			"name": "mixamorig:LeftLeg",
			"rotation": [
				-0.551389634609222,
				-0.039153054356575,
				0.00677253725007176,
				0.833301067352295
			],
			"scale": [
				1.00000011920929,
				1.00000178813934,
				0.999998271465302
			],
			"translation": [
				-0.00183250894770026,
				0.380973696708679,
				-0.000558327708858997
			]
		},
		{
			"children": [
				19
			],
			"name": "mixamorig:LeftFoot",
			"rotation": [
				0.504403114318848,
				-0.0922927185893059,
				-0.00156281515955925,
				0.858520328998566
			],
			"scale": [
				0.99999988079071,
				1.00000023841858,
				0.999999821186066
			],
			"translation": [
				0.00404652114957571,
				0.368649899959564,
				-0.00363122695125639
			]
		},
		{
			"name": "mixamorig:LeftToeBase",
			"rotation": [
				0.39910700917244,
				-0.0195193514227867,
				-0.0133771132677794,
				0.916598975658417
			],
			"scale": [
				0.999999940395355,
				1.0,
				0.999999940395355
			],
			"translation": [
				0.000446761230705306,
				0.212235674262047,
				-0.00207977299578488
			]
		},
		{
			"children": [
				21
			],
			"name": "mixamorig:RightUpLeg",
			"rotation": [
				0.0111404806375504,
				0.220218420028687,
				0.962399661540985,
				0.158639758825302
			],
			"scale": [
				0.999999403953552,
				1.0,
				0.999999344348907
			],
			"translation": [
				-0.102159723639488,
				-0.0609536878764629,
				-0.00331972213461995
			]
		},
		{
			"children": [
				22
			],
			"name": "mixamorig:RightLeg",
			"rotation": [
				-0.5334153175354,
				-0.00543158780783415,
				0.0906586050987244,
				0.84096348285675
			],
			"scale": [
				0.999999821186066,
				1.00000071525574,
				0.999999582767487
			],
			"translation": [
				0.00188632716890424,
				0.388749957084656,
				0.00195743911899626
			]
		},
		{
			"children": [
				23
			],
			"name": "mixamorig:RightFoot",
			"rotation": [
				0.464884787797928,
				0.0300708953291178,
				-0.0651273876428604,
				0.882460355758667
			],
			"scale": [
				0.99999988079071,
				1.0,
				0.999999940395355
			],
			"translation": [
				-0.00282336468808353,
				0.371313363313675,
				-0.0050640725530684
			]
		},
		{
			"name": "mixamorig:RightToeBase",
			"rotation": [
				0.338783591985703,
				-0.015777662396431,
				-0.040031224489212,
				0.939879894256592
			],
			"scale": [
				0.999999821186066,
				0.999999940395355,
				1.0
			],
			"translation": [
				-0.000535867176949978,
				0.222492277622223,
				0.00190381880383939
			]
		},
		{
			"mesh": 0,
			"name": "mesh",
			"rotation": [
				6.71794140316706e-08,
				0.0,
				0.0,
				1.0
			],
			"scale": [
				1.0,
				1.00000011920929,
				1.00000011920929
			],
			"skin": 0,
			"translation": [
				0.0,
				0.0,
				0.0
			]
		}
	],
	"samplers": [
		{},
		{}
	],
	"scene": 0,
	"scenes": [
		{
			"name": "Root Scene",
			"nodes": [
				0
			]
		}
	],
	"skins": [
		{
			"inverseBindMatrices": 18,
			"joints": [
				2,
				3,
				4,
				5,
				6,
				7,
				8,
				9,
				10,
				11,
				12,
				13,
				14,
				15,
				16,
				17,
				18,
				19,
				20,
				21,
				22,
				23
			],
			"skeleton": 2
		}
	],
	"textures": [
		{
			"extensions": {
				"EXT_texture_webp": {
					"source": 0
				},
				"KHR_texture_basisu": {
					"source": 0
				}
			},
			"name": "base_color_texture",
			"sampler": 0,
			"source": 0
		},
		{}
	]
}